<svg xmlns="http://www.w3.org/2000/svg" width="1133.26" height="675.926" viewBox="0 0 1133.26 675.926"><defs><style>.a{fill:#fff;opacity:0.05;}</style></defs><path class="a" d="M1582.23,2354.013q.552-5.788.561-11.563a120.127,120.127,0,0,0-162.775-112.267C1264.77,1896.3,814.477,1970.3,706.545,2284.211A208.23,208.23,0,0,0,573.222,2479.16c0,108.012,78.857,197.48,183.42,208.121a15.641,15.641,0,0,0,3.169-31.121c-88.549-9.005-155.315-85.1-155.315-177,0-78.1,48.976-150.054,124.533-169.726,11.916-3.109,15.163-29.163,15.443-31.588,95.439-265.929,530.568-334.333,649.506-22.134,1.8,4.746,4.342,9.158,8.974,11.223a15.677,15.677,0,0,0,14.359-.85,88.808,88.808,0,0,1,131.922,96.341,15.648,15.648,0,0,0,12.389,18.879A138.992,138.992,0,0,1,1675.209,2518c0,70.786-59.535,132.965-132.71,138.62a15.638,15.638,0,0,0,1.182,31.229c.411,0,.813-.016,1.225-.053,90.607-6.983,161.575-81.57,161.575-169.8A170.318,170.318,0,0,0,1582.23,2354.013Z" transform="translate(-573.222 -2011.919)"/></svg>