<svg xmlns="http://www.w3.org/2000/svg" width="684.333" height="408.167" viewBox="0 0 684.333 408.167"><defs><style>.a{fill:#0062a2;opacity:0.09;}</style></defs><path class="a" d="M1182.524,2218.5q.333-3.5.339-6.982a72.54,72.54,0,0,0-98.294-67.794c-93.747-201.621-365.662-156.936-430.838,32.626a125.742,125.742,0,0,0-80.509,117.722c0,65.225,47.619,119.251,110.76,125.676a9.445,9.445,0,0,0,1.914-18.792c-53.471-5.438-93.789-51.389-93.789-106.884,0-47.164,29.575-90.612,75.2-102.491,7.2-1.877,9.157-17.61,9.326-19.075,57.632-160.585,320.39-201.891,392.213-13.366,1.089,2.866,2.622,5.53,5.419,6.777a9.466,9.466,0,0,0,8.671-.513,53.628,53.628,0,0,1,79.662,58.177,9.449,9.449,0,0,0,7.481,11.4,83.932,83.932,0,0,1,68.592,82.542c0,42.745-35.951,80.292-80.138,83.708a9.443,9.443,0,0,0,.714,18.858c.248,0,.491-.01.74-.032,54.714-4.217,97.569-49.257,97.569-102.534A102.849,102.849,0,0,0,1182.524,2218.5Z" transform="translate(-573.222 -2011.919)"/></svg>