<svg xmlns="http://www.w3.org/2000/svg" width="63.986" height="63.71" viewBox="0 0 63.986 63.71"><defs><style>.a{fill:#e3803b;}</style></defs><path class="a" d="M8729,10640.486l-4.307,4.224a31.794,31.794,0,0,1-6.243-1.492l-1.885-5.819-5.965,1.784a32.209,32.209,0,0,1-4.686-4.024l1.063-6.315-6.481-1.287a31.769,31.769,0,0,1-2.155-5.365l4.094-5.411-5.428-4.4a32.043,32.043,0,0,1,.56-5.394l6.413-3.013-2.872-6.664a32.076,32.076,0,0,1,2.905-4.3l7.241.344.538-7.336a31.83,31.83,0,0,1,4.489-2.389l6.314,3.73,3.868-6.259q1.255-.1,2.535-.1t2.534.1l3.869,6.259,6.314-3.731a31.924,31.924,0,0,1,4.489,2.389l.538,7.337,7.242-.344a32.159,32.159,0,0,1,2.905,4.3l-2.871,6.665,6.413,3.014a32.212,32.212,0,0,1,.56,5.391l-5.431,4.4,4.1,5.412a31.806,31.806,0,0,1-2.156,5.365l-6.479,1.286,1.061,6.315a32.1,32.1,0,0,1-4.685,4.024l-5.966-1.784-1.885,5.819a31.8,31.8,0,0,1-6.244,1.492Z" transform="translate(-8697.007 -10581)"/></svg>